<?xml version="1.0" encoding="UTF-8" standalone="no"?>
<svg
   viewBox="0 0 24 24"
   width="24"
   height="24"
   version="1.1"
   id="svg5"
   sodipodi:docname="icon.svg"
   inkscape:version="1.3.2 (091e20e, 2023-11-25, custom)"
   xmlns:inkscape="http://www.inkscape.org/namespaces/inkscape"
   xmlns:sodipodi="http://sodipodi.sourceforge.net/DTD/sodipodi-0.dtd"
   xmlns="http://www.w3.org/2000/svg"
   xmlns:svg="http://www.w3.org/2000/svg">
  <defs
     id="defs5" />
  <sodipodi:namedview
     id="namedview5"
     pagecolor="#ffffff"
     bordercolor="#000000"
     borderopacity="0.25"
     inkscape:showpageshadow="2"
     inkscape:pageopacity="0.0"
     inkscape:pagecheckerboard="0"
     inkscape:deskcolor="#d1d1d1"
     inkscape:zoom="24.604167"
     inkscape:cx="9.1854361"
     inkscape:cy="12.172735"
     inkscape:window-width="2560"
     inkscape:window-height="1377"
     inkscape:window-x="-8"
     inkscape:window-y="255"
     inkscape:window-maximized="1"
     inkscape:current-layer="svg5" />
  <circle
     cx="12"
     cy="12"
     r="10"
     fill="#0f0f0f"
     id="circle1" />
  <!-- Segment 1: top-right (filled) -->
  <path
     d="M12,12 L12,2 A10,10 0 0,1 22,12 Z"
     fill="#c0392b"
     id="path1" />
  <!-- Segment 2: bottom-right (filled) -->
  <path
     d="M12,12 L22,12 A10,10 0 0,1 12,22 Z"
     fill="#c0392b"
     id="path2"
     style="fill:#2a2a2a;fill-opacity:1" />
  <!-- Segment 3: bottom-left (empty) -->
  <path
     d="M12,12 L12,22 A10,10 0 0,1 2,12 Z"
     fill="#2a2a2a"
     id="path3"
     style="fill:#00ffff" />
  <!-- Segment 4: top-left (empty) -->
  <path
     d="M12,12 L2,12 A10,10 0 0,1 12,2 Z"
     fill="#2a2a2a"
     id="path4"
     style="fill:#2a2a2a;fill-opacity:0" />
  <!-- Outer ring -->
  <circle
     cx="12"
     cy="12"
     r="10"
     fill="none"
     stroke="#060606"
     stroke-width="1.5"
     id="circle4" />
  <!-- Cross lines -->
  <line
     x1="12"
     y1="2"
     x2="12"
     y2="22"
     stroke="#060606"
     stroke-width="1.5"
     id="line4" />
  <line
     x1="2"
     y1="12"
     x2="22"
     y2="12"
     stroke="#060606"
     stroke-width="1.5"
     id="line5" />
  <!-- Center dot -->
  <circle
     cx="12"
     cy="12"
     r="2.5"
     fill="#0f0f0f"
     stroke="#060606"
     stroke-width="1"
     id="circle5" />
</svg>
