<svg xmlns="http://www.w3.org/2000/svg" xmlns:xlink="http://www.w3.org/1999/xlink" width="2000" zoomAndPan="magnify" viewBox="0 0 1500 1499.999933" height="2000" preserveAspectRatio="xMidYMid meet" version="1.0"><defs><g/><clipPath id="1726a9d942"><path d="M 15.300781 24.050781 L 1481 24.050781 L 1481 1487.761719 L 15.300781 1487.761719 Z M 15.300781 24.050781 " clip-rule="nonzero"/></clipPath><clipPath id="6fe2271469"><path d="M 747.875 24.050781 C 343.285156 24.050781 15.300781 351.714844 15.300781 755.90625 C 15.300781 1160.101562 343.285156 1487.761719 747.875 1487.761719 C 1152.460938 1487.761719 1480.445312 1160.101562 1480.445312 755.90625 C 1480.445312 351.714844 1152.460938 24.050781 747.875 24.050781 Z M 747.875 24.050781 " clip-rule="nonzero"/></clipPath><clipPath id="4c8bdb141e"><path d="M 0.300781 0.0507812 L 1465 0.0507812 L 1465 1463.761719 L 0.300781 1463.761719 Z M 0.300781 0.0507812 " clip-rule="nonzero"/></clipPath><clipPath id="5c2183f27d"><path d="M 732.875 0.0507812 C 328.285156 0.0507812 0.300781 327.714844 0.300781 731.90625 C 0.300781 1136.101562 328.285156 1463.761719 732.875 1463.761719 C 1137.460938 1463.761719 1465.445312 1136.101562 1465.445312 731.90625 C 1465.445312 327.714844 1137.460938 0.0507812 732.875 0.0507812 Z M 732.875 0.0507812 " clip-rule="nonzero"/></clipPath><clipPath id="7f5e29dbe2"><rect x="0" width="1466" y="0" height="1464"/></clipPath><clipPath id="ee04be2fd1"><path d="M 15.300781 24.050781 L 1480.71875 24.050781 L 1480.71875 1487.683594 L 15.300781 1487.683594 Z M 15.300781 24.050781 " clip-rule="nonzero"/></clipPath><clipPath id="e27767ce6d"><path d="M 747.871094 24.050781 C 343.285156 24.050781 15.300781 351.710938 15.300781 755.902344 C 15.300781 1160.09375 343.285156 1487.753906 747.871094 1487.753906 C 1152.457031 1487.753906 1480.4375 1160.09375 1480.4375 755.902344 C 1480.4375 351.710938 1152.457031 24.050781 747.871094 24.050781 Z M 747.871094 24.050781 " clip-rule="nonzero"/></clipPath><clipPath id="c81033d393"><path d="M 757.824219 32.558594 L 1471.496094 32.558594 L 1471.496094 756 L 757.824219 756 Z M 757.824219 32.558594 " clip-rule="nonzero"/></clipPath><clipPath id="6c285873f5"><path d="M 757.824219 32.558594 C 945.777344 32.558594 1129.5625 109.71875 1262.46875 244.425781 C 1395.371094 379.128906 1471.496094 565.410156 1471.496094 755.910156 L 1107.40625 755.910156 C 1107.40625 662.59375 1070.117188 571.351562 1005.015625 505.367188 C 939.914062 439.382812 849.890625 401.589844 757.824219 401.589844 Z M 757.824219 32.558594 " clip-rule="nonzero"/></clipPath><clipPath id="12761e355a"><path d="M 0.824219 0.558594 L 714.496094 0.558594 L 714.496094 723 L 0.824219 723 Z M 0.824219 0.558594 " clip-rule="nonzero"/></clipPath><clipPath id="9fedbcafff"><path d="M 0.824219 0.558594 C 188.777344 0.558594 372.5625 77.71875 505.46875 212.425781 C 638.371094 347.128906 714.496094 533.410156 714.496094 723.910156 L 350.40625 723.910156 C 350.40625 630.59375 313.117188 539.351562 248.015625 473.367188 C 182.914062 407.382812 92.890625 369.589844 0.824219 369.589844 Z M 0.824219 0.558594 " clip-rule="nonzero"/></clipPath><clipPath id="a86dd8486f"><rect x="0" width="715" y="0" height="724"/></clipPath><clipPath id="ce41a406a8"><path d="M 747.867188 746.3125 L 1471.496094 746.3125 L 1471.496094 1478.421875 L 747.867188 1478.421875 Z M 747.867188 746.3125 " clip-rule="nonzero"/></clipPath><clipPath id="8f5c5486ab"><path d="M 1471.496094 746.6875 C 1471.496094 939.398438 1394.308594 1127.832031 1259.550781 1264.101562 C 1124.792969 1400.367188 938.441406 1478.421875 747.867188 1478.421875 L 747.867188 1105.113281 C 841.21875 1105.113281 932.496094 1066.882812 998.507812 1000.132812 C 1064.515625 933.386719 1102.324219 841.082031 1102.324219 746.6875 Z M 1471.496094 746.6875 " clip-rule="nonzero"/></clipPath><clipPath id="46f35d658a"><path d="M 0.867188 0.640625 L 724.496094 0.640625 L 724.496094 732.421875 L 0.867188 732.421875 Z M 0.867188 0.640625 " clip-rule="nonzero"/></clipPath><clipPath id="977c204259"><path d="M 724.496094 0.6875 C 724.496094 193.398438 647.308594 381.832031 512.550781 518.101562 C 377.792969 654.367188 191.441406 732.421875 0.867188 732.421875 L 0.867188 359.113281 C 94.21875 359.113281 185.496094 320.882812 251.507812 254.132812 C 317.515625 187.386719 355.324219 95.082031 355.324219 0.6875 Z M 724.496094 0.6875 " clip-rule="nonzero"/></clipPath><clipPath id="317975f719"><rect x="0" width="725" y="0" height="733"/></clipPath><clipPath id="68c2e27f1d"><path d="M 904 838 L 1383 838 L 1383 1131 L 904 1131 Z M 904 838 " clip-rule="nonzero"/></clipPath><clipPath id="437dcd256b"><path d="M 1382.621094 1103.675781 L 1367.484375 1130.117188 L 904.792969 865.246094 L 919.925781 838.804688 Z M 1382.621094 1103.675781 " clip-rule="nonzero"/></clipPath><clipPath id="441a6a2768"><path d="M 0.558594 0.800781 L 478.640625 0.800781 L 478.640625 292.160156 L 0.558594 292.160156 Z M 0.558594 0.800781 " clip-rule="nonzero"/></clipPath><clipPath id="c122ff2bc5"><path d="M 478.621094 265.675781 L 463.484375 292.117188 L 0.792969 27.246094 L 15.925781 0.804688 Z M 478.621094 265.675781 " clip-rule="nonzero"/></clipPath><clipPath id="3534cbb9ee"><rect x="0" width="479" y="0" height="293"/></clipPath><clipPath id="407b926b6b"><path d="M 736.890625 32.554688 L 767.359375 32.554688 L 767.359375 565.699219 L 736.890625 565.699219 Z M 736.890625 32.554688 " clip-rule="nonzero"/></clipPath><clipPath id="b602cf6dd6"><path d="M 0.890625 0.554688 L 31.359375 0.554688 L 31.359375 533.699219 L 0.890625 533.699219 Z M 0.890625 0.554688 " clip-rule="nonzero"/></clipPath><clipPath id="bf525a305a"><rect x="0" width="32" y="0" height="534"/></clipPath><clipPath id="9b5996cf93"><path d="M 131 931 L 1131 931 L 1131 1473 L 131 1473 Z M 131 931 " clip-rule="nonzero"/></clipPath><clipPath id="e49fe62309"><path d="M 503.285156 1743.632812 L 131.0625 1123.074219 L 758.890625 746.492188 L 1131.113281 1367.046875 Z M 503.285156 1743.632812 " clip-rule="nonzero"/></clipPath><clipPath id="6e5b23d77c"><path d="M 1130.789062 1367.238281 C 965.53125 1466.367188 764.230469 1497.101562 578.054688 1451.632812 C 391.878906 1406.164062 229.089844 1286.503906 131.0625 1123.074219 L 451.195312 931.050781 C 499.210938 1011.105469 578.953125 1069.71875 670.148438 1091.992188 C 761.339844 1114.261719 859.945312 1099.210938 940.894531 1050.652344 Z M 1130.789062 1367.238281 " clip-rule="nonzero"/></clipPath><clipPath id="953351b4ba"><path d="M 0.0390625 0 L 999.878906 0 L 999.878906 542 L 0.0390625 542 Z M 0.0390625 0 " clip-rule="nonzero"/></clipPath><clipPath id="f6ec2008fe"><path d="M 372.285156 812.632812 L 0.0625 192.074219 L 627.890625 -184.507812 L 1000.113281 436.046875 Z M 372.285156 812.632812 " clip-rule="nonzero"/></clipPath><clipPath id="72e768acf2"><path d="M 999.789062 436.238281 C 834.53125 535.367188 633.230469 566.101562 447.054688 520.632812 C 260.878906 475.164062 98.089844 355.503906 0.0625 192.074219 L 320.195312 0.0507812 C 368.210938 80.105469 447.953125 138.71875 539.148438 160.992188 C 630.339844 183.261719 728.945312 168.210938 809.894531 119.652344 Z M 999.789062 436.238281 " clip-rule="nonzero"/></clipPath><clipPath id="939e941270"><rect x="0" width="1000" y="0" height="542"/></clipPath><clipPath id="ba6393d438"><path d="M 736.890625 945.277344 L 767.359375 945.277344 L 767.359375 1478.421875 L 736.890625 1478.421875 Z M 736.890625 945.277344 " clip-rule="nonzero"/></clipPath><clipPath id="d910a94fb4"><path d="M 0.890625 0.277344 L 31.359375 0.277344 L 31.359375 533.421875 L 0.890625 533.421875 Z M 0.890625 0.277344 " clip-rule="nonzero"/></clipPath><clipPath id="14c5302a2e"><rect x="0" width="32" y="0" height="534"/></clipPath><clipPath id="e03ddf67e8"><path d="M 119 824 L 589 824 L 589 1132 L 119 1132 Z M 119 824 " clip-rule="nonzero"/></clipPath><clipPath id="30d856d102"><path d="M 572.328125 824.4375 L 588.410156 850.3125 L 135.609375 1131.761719 L 119.527344 1105.886719 Z M 572.328125 824.4375 " clip-rule="nonzero"/></clipPath><clipPath id="507624d8a0"><path d="M 0.519531 0.398438 L 469.480469 0.398438 L 469.480469 307.839844 L 0.519531 307.839844 Z M 0.519531 0.398438 " clip-rule="nonzero"/></clipPath><clipPath id="3adbceef8d"><path d="M 453.328125 0.4375 L 469.410156 26.3125 L 16.609375 307.761719 L 0.527344 281.886719 Z M 453.328125 0.4375 " clip-rule="nonzero"/></clipPath><clipPath id="a436c91e36"><rect x="0" width="470" y="0" height="308"/></clipPath><clipPath id="7adefac2e3"><path d="M 914 383 L 1384 383 L 1384 692 L 914 692 Z M 914 383 " clip-rule="nonzero"/></clipPath><clipPath id="9442254964"><path d="M 1367.515625 383.761719 L 1383.597656 409.640625 L 930.796875 691.089844 L 914.714844 665.214844 Z M 1367.515625 383.761719 " clip-rule="nonzero"/></clipPath><clipPath id="8b7ddf276f"><path d="M 0.640625 0.761719 L 469.601562 0.761719 L 469.601562 308.199219 L 0.640625 308.199219 Z M 0.640625 0.761719 " clip-rule="nonzero"/></clipPath><clipPath id="223ba1572a"><path d="M 453.515625 0.761719 L 469.597656 26.640625 L 16.796875 308.089844 L 0.714844 282.214844 Z M 453.515625 0.761719 " clip-rule="nonzero"/></clipPath><clipPath id="0d6e0d4a98"><rect x="0" width="470" y="0" height="309"/></clipPath><clipPath id="2325ec64df"><path d="M 119 383 L 598 383 L 598 676 L 119 676 Z M 119 383 " clip-rule="nonzero"/></clipPath><clipPath id="0447a8151e"><path d="M 597.355469 648.632812 L 582.21875 675.074219 L 119.523438 410.203125 L 134.660156 383.761719 Z M 597.355469 648.632812 " clip-rule="nonzero"/></clipPath><clipPath id="b4783fd8e8"><path d="M 0.519531 0.761719 L 478.359375 0.761719 L 478.359375 292.121094 L 0.519531 292.121094 Z M 0.519531 0.761719 " clip-rule="nonzero"/></clipPath><clipPath id="663565a313"><path d="M 478.355469 265.632812 L 463.21875 292.074219 L 0.523438 27.203125 L 15.660156 0.761719 Z M 478.355469 265.632812 " clip-rule="nonzero"/></clipPath><clipPath id="f2f4901607"><rect x="0" width="479" y="0" height="293"/></clipPath><clipPath id="d0c4794d9c"><path d="M 197.8125 206.3125 L 1298 206.3125 L 1298 1304.933594 L 197.8125 1304.933594 Z M 197.8125 206.3125 " clip-rule="nonzero"/></clipPath><clipPath id="3e11cc2e72"><path d="M 747.875 206.3125 C 444.082031 206.3125 197.8125 452.246094 197.8125 755.621094 C 197.8125 1058.996094 444.082031 1304.933594 747.875 1304.933594 C 1051.664062 1304.933594 1297.9375 1058.996094 1297.9375 755.621094 C 1297.9375 452.246094 1051.664062 206.3125 747.875 206.3125 Z M 747.875 206.3125 " clip-rule="nonzero"/></clipPath><clipPath id="5e383790cc"><path d="M 0.8125 0.3125 L 1100 0.3125 L 1100 1098.933594 L 0.8125 1098.933594 Z M 0.8125 0.3125 " clip-rule="nonzero"/></clipPath><clipPath id="6a417b7516"><path d="M 550.875 0.3125 C 247.082031 0.3125 0.8125 246.246094 0.8125 549.621094 C 0.8125 852.996094 247.082031 1098.933594 550.875 1098.933594 C 854.664062 1098.933594 1100.9375 852.996094 1100.9375 549.621094 C 1100.9375 246.246094 854.664062 0.3125 550.875 0.3125 Z M 550.875 0.3125 " clip-rule="nonzero"/></clipPath><clipPath id="17f7cf0f62"><rect x="0" width="1101" y="0" height="1099"/></clipPath><clipPath id="0a3c7af21d"><path d="M 197.8125 206.3125 L 1297.542969 206.3125 L 1297.542969 1305 L 197.8125 1305 Z M 197.8125 206.3125 " clip-rule="nonzero"/></clipPath><clipPath id="0d16442eb4"><path d="M 747.871094 206.3125 C 444.082031 206.3125 197.8125 452.246094 197.8125 755.621094 C 197.8125 1058.992188 444.082031 1304.925781 747.871094 1304.925781 C 1051.660156 1304.925781 1297.933594 1058.992188 1297.933594 755.621094 C 1297.933594 452.246094 1051.660156 206.3125 747.871094 206.3125 Z M 747.871094 206.3125 " clip-rule="nonzero"/></clipPath><clipPath id="cade7120eb"><path d="M 19.554688 24.050781 L 1484.96875 24.050781 L 1484.96875 1487.683594 L 19.554688 1487.683594 Z M 19.554688 24.050781 " clip-rule="nonzero"/></clipPath><clipPath id="704a4a2fe5"><path d="M 752.121094 24.050781 C 347.535156 24.050781 19.554688 351.710938 19.554688 755.902344 C 19.554688 1160.09375 347.535156 1487.753906 752.121094 1487.753906 C 1156.707031 1487.753906 1484.6875 1160.09375 1484.6875 755.902344 C 1484.6875 351.710938 1156.707031 24.050781 752.121094 24.050781 Z M 752.121094 24.050781 " clip-rule="nonzero"/></clipPath><clipPath id="3bc229dabb"><rect x="0" width="1500" y="0" height="1500"/></clipPath></defs><rect x="-150" width="1800" fill="#ffffff" y="-149.999993" height="1799.99992" fill-opacity="1"/><rect x="-150" width="1800" fill="#ffffff" y="-149.999993" height="1799.99992" fill-opacity="1"/><g transform="matrix(1, 0, 0, 1, 0, 0.000000000000112861)"><g clip-path="url(#3bc229dabb)"><g clip-path="url(#1726a9d942)"><g clip-path="url(#6fe2271469)"><g transform="matrix(1, 0, 0, 1, 15, 24)"><g clip-path="url(#7f5e29dbe2)"><g clip-path="url(#4c8bdb141e)"><g clip-path="url(#5c2183f27d)"><path fill="#000000" d="M 0.300781 0.0507812 L 1464.011719 0.0507812 L 1464.011719 1463.761719 L 0.300781 1463.761719 Z M 0.300781 0.0507812 " fill-opacity="1" fill-rule="nonzero"/></g></g></g></g></g></g><g clip-path="url(#ee04be2fd1)"><g clip-path="url(#e27767ce6d)"><path stroke-linecap="butt" transform="matrix(0.891915, 0, 0, 0.891915, 15.301338, 24.051453)" fill="none" stroke-linejoin="miter" d="M 821.345102 -0.000752761 C 367.730036 -0.000752761 -0.000623806 367.366398 -0.000623806 820.539122 C -0.000623806 1273.711846 367.730036 1641.078997 821.345102 1641.078997 C 1274.960167 1641.078997 1642.686447 1273.711846 1642.686447 820.539122 C 1642.686447 367.366398 1274.960167 -0.000752761 821.345102 -0.000752761 Z M 821.345102 -0.000752761 " stroke="#000000" stroke-width="16.817749" stroke-opacity="1" stroke-miterlimit="4"/></g></g><g clip-path="url(#c81033d393)"><g clip-path="url(#6c285873f5)"><g transform="matrix(1, 0, 0, 1, 757, 32)"><g clip-path="url(#a86dd8486f)"><g clip-path="url(#12761e355a)"><g clip-path="url(#9fedbcafff)"><path fill="#b61404" d="M 714.496094 0.558594 L 714.496094 722.59375 L 0.824219 722.59375 L 0.824219 0.558594 Z M 714.496094 0.558594 " fill-opacity="1" fill-rule="nonzero"/></g></g></g></g></g></g><g clip-path="url(#ce41a406a8)"><g clip-path="url(#8f5c5486ab)"><g transform="matrix(1, 0, 0, 1, 747, 746)"><g clip-path="url(#317975f719)"><g clip-path="url(#46f35d658a)"><g clip-path="url(#977c204259)"><path fill="#b61404" d="M 724.496094 732.421875 L 0.867188 732.421875 L 0.867188 0.3125 L 724.496094 0.3125 Z M 724.496094 732.421875 " fill-opacity="1" fill-rule="nonzero"/></g></g></g></g></g></g><g clip-path="url(#68c2e27f1d)"><g clip-path="url(#437dcd256b)"><g transform="matrix(1, 0, 0, 1, 904, 838)"><g clip-path="url(#3534cbb9ee)"><g clip-path="url(#441a6a2768)"><g clip-path="url(#c122ff2bc5)"><path fill="#ffffff" d="M 478.621094 265.675781 L 463.484375 292.117188 L 0.765625 27.230469 L 15.902344 0.789062 Z M 478.621094 265.675781 " fill-opacity="1" fill-rule="nonzero"/></g></g></g></g></g></g><g clip-path="url(#407b926b6b)"><g transform="matrix(1, 0, 0, 1, 736, 32)"><g clip-path="url(#bf525a305a)"><g clip-path="url(#b602cf6dd6)"><path fill="#ffffff" d="M 0.890625 0.554688 L 31.359375 0.554688 L 31.359375 533.726562 L 0.890625 533.726562 Z M 0.890625 0.554688 " fill-opacity="1" fill-rule="nonzero"/></g></g></g></g><g clip-path="url(#9b5996cf93)"><g clip-path="url(#e49fe62309)"><g clip-path="url(#6e5b23d77c)"><g transform="matrix(1, 0, 0, 1, 131, 931)"><g clip-path="url(#939e941270)"><g clip-path="url(#953351b4ba)"><g clip-path="url(#f6ec2008fe)"><g clip-path="url(#72e768acf2)"><path fill="#b61404" d="M 372.285156 812.632812 L 0.0625 192.074219 L 627.890625 -184.507812 L 1000.113281 436.046875 Z M 372.285156 812.632812 " fill-opacity="1" fill-rule="nonzero"/></g></g></g></g></g></g></g></g><g clip-path="url(#ba6393d438)"><g transform="matrix(1, 0, 0, 1, 736, 945)"><g clip-path="url(#14c5302a2e)"><g clip-path="url(#d910a94fb4)"><path fill="#ffffff" d="M 0.890625 0.277344 L 31.359375 0.277344 L 31.359375 533.449219 L 0.890625 533.449219 Z M 0.890625 0.277344 " fill-opacity="1" fill-rule="nonzero"/></g></g></g></g><g clip-path="url(#e03ddf67e8)"><g clip-path="url(#30d856d102)"><g transform="matrix(1, 0, 0, 1, 119, 824)"><g clip-path="url(#a436c91e36)"><g clip-path="url(#507624d8a0)"><g clip-path="url(#3adbceef8d)"><path fill="#ffffff" d="M 453.328125 0.4375 L 469.410156 26.3125 L 16.585938 307.777344 L 0.503906 281.902344 Z M 453.328125 0.4375 " fill-opacity="1" fill-rule="nonzero"/></g></g></g></g></g></g><g clip-path="url(#7adefac2e3)"><g clip-path="url(#9442254964)"><g transform="matrix(1, 0, 0, 1, 914, 383)"><g clip-path="url(#0d6e0d4a98)"><g clip-path="url(#8b7ddf276f)"><g clip-path="url(#223ba1572a)"><path fill="#ffffff" d="M 453.515625 0.761719 L 469.597656 26.640625 L 16.773438 308.101562 L 0.691406 282.226562 Z M 453.515625 0.761719 " fill-opacity="1" fill-rule="nonzero"/></g></g></g></g></g></g><g clip-path="url(#2325ec64df)"><g clip-path="url(#0447a8151e)"><g transform="matrix(1, 0, 0, 1, 119, 383)"><g clip-path="url(#f2f4901607)"><g clip-path="url(#b4783fd8e8)"><g clip-path="url(#663565a313)"><path fill="#ffffff" d="M 478.355469 265.632812 L 463.21875 292.074219 L 0.5 27.191406 L 15.636719 0.75 Z M 478.355469 265.632812 " fill-opacity="1" fill-rule="nonzero"/></g></g></g></g></g></g><g clip-path="url(#d0c4794d9c)"><g clip-path="url(#3e11cc2e72)"><g transform="matrix(1, 0, 0, 1, 197, 206)"><g clip-path="url(#17f7cf0f62)"><g clip-path="url(#5e383790cc)"><g clip-path="url(#6a417b7516)"><path fill="#000000" d="M 0.8125 0.3125 L 1099.433594 0.3125 L 1099.433594 1098.933594 L 0.8125 1098.933594 Z M 0.8125 0.3125 " fill-opacity="1" fill-rule="nonzero"/></g></g></g></g></g></g><g clip-path="url(#0a3c7af21d)"><g clip-path="url(#0d16442eb4)"><path stroke-linecap="butt" transform="matrix(0.891915, 0, 0, 0.891915, 197.810788, 206.311237)" fill="none" stroke-linejoin="miter" d="M 616.718489 0.00141647 C 276.115232 0.00141647 0.00191912 275.738082 0.00191912 615.877099 C 0.00191912 956.011736 276.115232 1231.748402 616.718489 1231.748402 C 957.321746 1231.748402 1233.439439 956.011736 1233.439439 615.877099 C 1233.439439 275.738082 957.321746 0.00141647 616.718489 0.00141647 Z M 616.718489 0.00141647 " stroke="#ffffff" stroke-width="33.635498" stroke-opacity="1" stroke-miterlimit="4"/></g></g><g fill="#ffffff" fill-opacity="1"><g transform="translate(396.679158, 744.924068)"><g><path d="M 68.71875 -9.171875 L 36.625 -9.171875 L 45.796875 -18.34375 L 45.796875 -54.96875 L 36.625 -64.140625 L 68.71875 -64.140625 L 73.3125 -59.546875 L 73.3125 -13.75 Z M 68.71875 -73.3125 L 45.796875 -73.3125 L 45.796875 -100.765625 L 36.625 -109.9375 L 68.71875 -109.9375 L 73.3125 -105.359375 L 73.3125 -77.890625 Z M 0 0 L 96.1875 0 L 109.9375 -13.75 L 109.9375 -59.546875 L 96.1875 -73.3125 L 109.9375 -87.0625 L 109.9375 -105.359375 L 96.1875 -119.109375 L 0 -119.109375 L 9.171875 -109.9375 L 9.171875 -9.171875 Z M 0 0 "/></g></g></g><g fill="#ffffff" fill-opacity="1"><g transform="translate(522.625668, 744.924068)"><g><path d="M 0 0 L 82.484375 0 L 82.484375 -18.34375 L 73.3125 -9.171875 L 36.625 -9.171875 L 45.796875 -18.34375 L 45.796875 -109.9375 L 50.390625 -119.109375 L 0 -119.109375 L 9.171875 -109.9375 L 9.171875 -9.171875 Z M 0 0 "/></g></g></g><g fill="#ffffff" fill-opacity="1"><g transform="translate(621.060454, 744.924068)"><g><path d="M 73.3125 -64.140625 L 45.796875 -64.140625 L 45.796875 -100.765625 L 54.96875 -109.9375 L 64.140625 -109.9375 L 73.3125 -100.765625 Z M 0 0 L 50.390625 0 L 45.796875 -9.171875 L 45.796875 -45.796875 L 36.625 -54.96875 L 82.484375 -54.96875 L 73.3125 -45.796875 L 73.3125 -9.171875 L 68.71875 0 L 119.109375 0 L 109.9375 -9.171875 L 109.9375 -91.59375 L 82.484375 -119.109375 L 36.625 -119.109375 L 9.171875 -91.59375 L 9.171875 -9.171875 Z M 0 0 "/></g></g></g><g fill="#ffffff" fill-opacity="1"><g transform="translate(756.17752, 744.924068)"><g><path d="M 68.71875 -9.171875 L 36.625 -9.171875 L 45.796875 -18.34375 L 45.796875 -100.765625 L 36.625 -109.9375 L 68.71875 -109.9375 L 73.3125 -105.359375 L 73.3125 -13.75 Z M 0 0 L 96.1875 0 L 109.9375 -13.75 L 109.9375 -105.359375 L 96.1875 -119.109375 L 0 -119.109375 L 9.171875 -109.9375 L 9.171875 -9.171875 Z M 0 0 "/></g></g></g><g fill="#ffffff" fill-opacity="1"><g transform="translate(882.124056, 744.924068)"><g><path d="M 0 0 L 91.59375 0 L 91.59375 -27.515625 L 73.3125 -9.171875 L 36.625 -9.171875 L 45.796875 -13.75 L 45.796875 -54.96875 L 36.625 -64.140625 L 64.140625 -64.140625 L 73.3125 -54.96875 L 73.3125 -82.484375 L 64.140625 -73.3125 L 45.796875 -73.3125 L 45.796875 -100.765625 L 36.625 -109.9375 L 73.3125 -109.9375 L 91.59375 -91.59375 L 91.59375 -119.109375 L 0 -119.109375 L 9.171875 -109.9375 L 9.171875 -9.171875 Z M 0 0 "/></g></g></g><g fill="#ffffff" fill-opacity="1"><g transform="translate(989.729399, 744.924068)"><g><path d="M 0 0 L 9.171875 -9.171875 L 18.34375 0 L 68.71875 0 L 87.0625 -18.34375 L 87.0625 -45.796875 L 27.515625 -105.359375 L 27.515625 -109.9375 L 50.390625 -109.9375 L 82.484375 -77.890625 L 82.484375 -119.109375 L 73.3125 -109.9375 L 64.140625 -119.109375 L 22.921875 -119.109375 L 4.578125 -100.765625 L 4.578125 -73.3125 L 64.140625 -13.75 L 64.140625 -9.171875 L 41.21875 -9.171875 L 0 -50.390625 Z M 0 0 "/></g></g></g><g fill="#ffffff" fill-opacity="1"><g transform="translate(1097.347865, 744.924068)"><g/></g></g><g fill="#ffffff" fill-opacity="1"><g transform="translate(406.713199, 910.820208)"><g><path d="M 13.75 0 L 73.3125 0 L 82.484375 -9.171875 L 91.59375 0 L 91.59375 -36.625 L 64.140625 -9.171875 L 27.515625 -9.171875 L 36.625 -18.34375 L 36.625 -100.765625 L 27.515625 -109.9375 L 64.140625 -109.9375 L 91.59375 -82.484375 L 91.59375 -119.109375 L 82.484375 -109.9375 L 73.3125 -119.109375 L 13.75 -119.109375 L 0 -105.359375 L 0 -13.75 Z M 13.75 0 "/></g></g></g><g fill="#ffffff" fill-opacity="1"><g transform="translate(514.318555, 910.820208)"><g><path d="M 0 0 L 82.484375 0 L 82.484375 -18.34375 L 73.3125 -9.171875 L 36.625 -9.171875 L 45.796875 -18.34375 L 45.796875 -109.9375 L 50.390625 -119.109375 L 0 -119.109375 L 9.171875 -109.9375 L 9.171875 -9.171875 Z M 0 0 "/></g></g></g><g fill="#ffffff" fill-opacity="1"><g transform="translate(612.753341, 910.820208)"><g><path d="M 73.3125 -9.171875 L 41.21875 -9.171875 L 36.625 -13.75 L 36.625 -100.765625 L 27.515625 -109.9375 L 59.546875 -109.9375 L 64.140625 -105.359375 L 64.140625 -18.34375 Z M 13.75 0 L 87.0625 0 L 100.765625 -13.75 L 100.765625 -105.359375 L 87.0625 -119.109375 L 13.75 -119.109375 L 0 -105.359375 L 0 -13.75 Z M 13.75 0 "/></g></g></g><g fill="#ffffff" fill-opacity="1"><g transform="translate(729.52928, 910.820208)"><g><path d="M 13.75 0 L 73.3125 0 L 82.484375 -9.171875 L 91.59375 0 L 91.59375 -36.625 L 64.140625 -9.171875 L 27.515625 -9.171875 L 36.625 -18.34375 L 36.625 -100.765625 L 27.515625 -109.9375 L 64.140625 -109.9375 L 91.59375 -82.484375 L 91.59375 -119.109375 L 82.484375 -109.9375 L 73.3125 -119.109375 L 13.75 -119.109375 L 0 -105.359375 L 0 -13.75 Z M 13.75 0 "/></g></g></g><g fill="#ffffff" fill-opacity="1"><g transform="translate(837.134623, 910.820208)"><g><path d="M 0 0 L 50.390625 0 L 45.796875 -9.171875 L 45.796875 -45.796875 L 36.625 -54.96875 L 54.96875 -54.96875 L 82.484375 0 L 123.6875 0 L 114.53125 -9.171875 L 77.890625 -82.484375 L 91.59375 -109.9375 L 100.765625 -119.109375 L 82.484375 -119.109375 L 54.96875 -64.140625 L 45.796875 -64.140625 L 45.796875 -109.9375 L 50.390625 -119.109375 L 0 -119.109375 L 9.171875 -109.9375 L 9.171875 -9.171875 Z M 0 0 "/></g></g></g><g fill="#ffffff" fill-opacity="1"><g transform="translate(981.422245, 910.820208)"><g><path d="M 0 0 L 9.171875 -9.171875 L 18.34375 0 L 68.71875 0 L 87.0625 -18.34375 L 87.0625 -45.796875 L 27.515625 -105.359375 L 27.515625 -109.9375 L 50.390625 -109.9375 L 82.484375 -77.890625 L 82.484375 -119.109375 L 73.3125 -109.9375 L 64.140625 -119.109375 L 22.921875 -119.109375 L 4.578125 -100.765625 L 4.578125 -73.3125 L 64.140625 -13.75 L 64.140625 -9.171875 L 41.21875 -9.171875 L 0 -50.390625 Z M 0 0 "/></g></g></g><g clip-path="url(#cade7120eb)"><g clip-path="url(#704a4a2fe5)"><path stroke-linecap="butt" transform="matrix(0.891915, 0, 0, 0.891915, 19.553151, 24.051453)" fill="none" stroke-linejoin="miter" d="M 821.343069 -0.000752761 C 367.728003 -0.000752761 0.00172312 367.366398 0.00172312 820.539122 C 0.00172312 1273.711846 367.728003 1641.078997 821.343069 1641.078997 C 1274.958135 1641.078997 1642.684415 1273.711846 1642.684415 820.539122 C 1642.684415 367.366398 1274.958135 -0.000752761 821.343069 -0.000752761 Z M 821.343069 -0.000752761 " stroke="#000000" stroke-width="50.453247" stroke-opacity="1" stroke-miterlimit="4"/></g></g></g></g></svg>
