<svg xmlns="http://www.w3.org/2000/svg" xmlns:xlink="http://www.w3.org/1999/xlink" width="2000" zoomAndPan="magnify" viewBox="0 0 1500 1499.999933" height="2000" preserveAspectRatio="xMidYMid meet" version="1.0"><defs><clipPath id="ead3b2dfaa"><path d="M 0 6.144531 L 1496 6.144531 L 1496 1500 L 0 1500 Z M 0 6.144531 " clip-rule="nonzero"/></clipPath><clipPath id="fe0999e501"><path d="M 747.828125 6.144531 C 334.816406 6.144531 0 340.632812 0 753.242188 C 0 1165.855469 334.816406 1500.339844 747.828125 1500.339844 C 1160.84375 1500.339844 1495.660156 1165.855469 1495.660156 753.242188 C 1495.660156 340.632812 1160.84375 6.144531 747.828125 6.144531 Z M 747.828125 6.144531 " clip-rule="nonzero"/></clipPath><clipPath id="33c6174fe4"><path d="M 0 0.144531 L 1495 0.144531 L 1495 1494 L 0 1494 Z M 0 0.144531 " clip-rule="nonzero"/></clipPath><clipPath id="936a50811b"><path d="M 747.828125 0.144531 C 334.816406 0.144531 0 334.632812 0 747.242188 C 0 1159.855469 334.816406 1494.339844 747.828125 1494.339844 C 1160.84375 1494.339844 1495.660156 1159.855469 1495.660156 747.242188 C 1495.660156 334.632812 1160.84375 0.144531 747.828125 0.144531 Z M 747.828125 0.144531 " clip-rule="nonzero"/></clipPath><clipPath id="0b39ca4142"><rect x="0" width="1496" y="0" height="1494"/></clipPath><clipPath id="806b6299a3"><path d="M 0 6.144531 L 1495.5 6.144531 L 1495.5 1500 L 0 1500 Z M 0 6.144531 " clip-rule="nonzero"/></clipPath><clipPath id="aabf225bd9"><path d="M 747.824219 6.144531 C 334.8125 6.144531 0 340.628906 0 753.238281 C 0 1165.847656 334.8125 1500.332031 747.824219 1500.332031 C 1160.839844 1500.332031 1495.652344 1165.847656 1495.652344 753.238281 C 1495.652344 340.628906 1160.839844 6.144531 747.824219 6.144531 Z M 747.824219 6.144531 " clip-rule="nonzero"/></clipPath><clipPath id="9e41605222"><path d="M 757.988281 14.828125 L 1486.523438 14.828125 L 1486.523438 754 L 757.988281 754 Z M 757.988281 14.828125 " clip-rule="nonzero"/></clipPath><clipPath id="3ace06c6a8"><path d="M 757.988281 14.828125 C 949.855469 14.828125 1137.46875 93.59375 1273.140625 231.105469 C 1408.8125 368.617188 1486.523438 558.773438 1486.523438 753.242188 L 1114.847656 753.242188 C 1114.847656 657.984375 1076.78125 564.839844 1010.328125 497.480469 C 943.871094 430.125 851.972656 391.542969 757.988281 391.542969 Z M 757.988281 14.828125 " clip-rule="nonzero"/></clipPath><clipPath id="ffe9f59ef5"><path d="M 0.988281 0.828125 L 729.523438 0.828125 L 729.523438 738 L 0.988281 738 Z M 0.988281 0.828125 " clip-rule="nonzero"/></clipPath><clipPath id="762d2e4649"><path d="M 0.988281 0.828125 C 192.855469 0.828125 380.46875 79.59375 516.140625 217.105469 C 651.8125 354.617188 729.523438 544.773438 729.523438 739.242188 L 357.847656 739.242188 C 357.847656 643.984375 319.78125 550.839844 253.328125 483.480469 C 186.871094 416.125 94.972656 377.542969 0.988281 377.542969 Z M 0.988281 0.828125 " clip-rule="nonzero"/></clipPath><clipPath id="ccb2608a0a"><rect x="0" width="730" y="0" height="740"/></clipPath><clipPath id="9cfb7577cb"><path d="M 747.820312 743.441406 L 1486.519531 743.441406 L 1486.519531 1490.796875 L 747.820312 1490.796875 Z M 747.820312 743.441406 " clip-rule="nonzero"/></clipPath><clipPath id="69e3d41f1e"><path d="M 1486.519531 743.824219 C 1486.519531 940.546875 1407.726562 1132.90625 1270.160156 1272.011719 C 1132.597656 1411.117188 942.367188 1490.796875 747.820312 1490.796875 L 747.820312 1109.714844 C 843.117188 1109.714844 936.296875 1070.6875 1003.679688 1002.546875 C 1071.0625 934.410156 1109.660156 840.183594 1109.660156 743.824219 Z M 1486.519531 743.824219 " clip-rule="nonzero"/></clipPath><clipPath id="67dda96e77"><path d="M 0.820312 0.761719 L 739.519531 0.761719 L 739.519531 747.796875 L 0.820312 747.796875 Z M 0.820312 0.761719 " clip-rule="nonzero"/></clipPath><clipPath id="d968ec9ef6"><path d="M 739.519531 0.824219 C 739.519531 197.546875 660.726562 389.90625 523.160156 529.011719 C 385.597656 668.117188 195.367188 747.796875 0.820312 747.796875 L 0.820312 366.714844 C 96.117188 366.714844 189.296875 327.6875 256.679688 259.546875 C 324.0625 191.410156 362.660156 97.183594 362.660156 0.824219 Z M 739.519531 0.824219 " clip-rule="nonzero"/></clipPath><clipPath id="5ef72325fe"><rect x="0" width="740" y="0" height="748"/></clipPath><clipPath id="68ad37c2fb"><path d="M 84 331 L 1417 331 L 1417 1160 L 84 1160 Z M 84 331 " clip-rule="nonzero"/></clipPath><clipPath id="02d84f0549"><path d="M 1416.472656 1061.648438 L 1360.464844 1159.488281 L 84.980469 429.335938 L 140.988281 331.492188 Z M 1416.472656 1061.648438 " clip-rule="nonzero"/></clipPath><clipPath id="b813ab2f9c"><path d="M 1 0.441406 L 1332.480469 0.441406 L 1332.480469 828.679688 L 1 828.679688 Z M 1 0.441406 " clip-rule="nonzero"/></clipPath><clipPath id="ba0c0d9567"><path d="M 1332.472656 730.648438 L 1276.464844 828.488281 L 0.980469 98.335938 L 56.988281 0.492188 Z M 1332.472656 730.648438 " clip-rule="nonzero"/></clipPath><clipPath id="8a4bcaea3d"><rect x="0" width="1333" y="0" height="829"/></clipPath><clipPath id="21378d3deb"><path d="M 118 932 L 1139 932 L 1139 1485 L 118 1485 Z M 118 932 " clip-rule="nonzero"/></clipPath><clipPath id="71dd1506b2"><path d="M 498.148438 1761.53125 L 118.171875 1128.050781 L 759.078125 743.625 L 1139.050781 1377.105469 Z M 498.148438 1761.53125 " clip-rule="nonzero"/></clipPath><clipPath id="d8b5a4641b"><path d="M 1138.722656 1377.300781 C 970.019531 1478.492188 764.527344 1509.867188 574.476562 1463.453125 C 384.425781 1417.035156 218.246094 1294.886719 118.171875 1128.050781 L 444.972656 932.03125 C 493.992188 1013.75 575.394531 1073.582031 668.488281 1096.320312 C 761.582031 1119.054688 862.238281 1103.6875 944.875 1054.121094 Z M 1138.722656 1377.300781 " clip-rule="nonzero"/></clipPath><clipPath id="f6a4bdcc29"><path d="M 0.078125 0 L 1020.800781 0 L 1020.800781 553 L 0.078125 553 Z M 0.078125 0 " clip-rule="nonzero"/></clipPath><clipPath id="f8ad4b2814"><path d="M 380.148438 829.53125 L 0.171875 196.050781 L 641.078125 -188.375 L 1021.050781 445.105469 Z M 380.148438 829.53125 " clip-rule="nonzero"/></clipPath><clipPath id="ae3f9bdb08"><path d="M 1020.722656 445.300781 C 852.019531 546.492188 646.527344 577.867188 456.476562 531.453125 C 266.425781 485.035156 100.246094 362.886719 0.171875 196.050781 L 326.972656 0.03125 C 375.992188 81.75 457.394531 141.582031 550.488281 164.320312 C 643.582031 187.054688 744.238281 171.6875 826.875 122.121094 Z M 1020.722656 445.300781 " clip-rule="nonzero"/></clipPath><clipPath id="6144af8438"><rect x="0" width="1021" y="0" height="553"/></clipPath><clipPath id="e984587918"><path d="M 736.621094 946.558594 L 767.722656 946.558594 L 767.722656 1490.804688 L 736.621094 1490.804688 Z M 736.621094 946.558594 " clip-rule="nonzero"/></clipPath><clipPath id="6b892aeb07"><path d="M 0.621094 0.558594 L 31.722656 0.558594 L 31.722656 544.804688 L 0.621094 544.804688 Z M 0.621094 0.558594 " clip-rule="nonzero"/></clipPath><clipPath id="a6bc418dba"><rect x="0" width="32" y="0" height="545"/></clipPath><clipPath id="2963eb2208"><path d="M 701.992188 11.59375 L 813.992188 11.59375 L 813.992188 1486.179688 L 701.992188 1486.179688 Z M 701.992188 11.59375 " clip-rule="nonzero"/></clipPath><clipPath id="542458f1a3"><path d="M 0.992188 0.59375 L 112.992188 0.59375 L 112.992188 1475 L 0.992188 1475 Z M 0.992188 0.59375 " clip-rule="nonzero"/></clipPath><clipPath id="b671b1a2bd"><rect x="0" width="113" y="0" height="1476"/></clipPath><clipPath id="1de8f816fa"><path d="M 83 297 L 1390 297 L 1390 1168 L 83 1168 Z M 83 297 " clip-rule="nonzero"/></clipPath><clipPath id="1b11c73837"><path d="M 1330.375 297.261719 L 1389.78125 392.835938 L 142.859375 1167.894531 L 83.449219 1072.316406 Z M 1330.375 297.261719 " clip-rule="nonzero"/></clipPath><clipPath id="1210edb416"><path d="M 0.28125 0.121094 L 1306.839844 0.121094 L 1306.839844 871 L 0.28125 871 Z M 0.28125 0.121094 " clip-rule="nonzero"/></clipPath><clipPath id="6c950b50d5"><path d="M 1247.375 0.261719 L 1306.78125 95.835938 L 59.859375 870.894531 L 0.449219 775.316406 Z M 1247.375 0.261719 " clip-rule="nonzero"/></clipPath><clipPath id="3074b7a5e1"><rect x="0" width="1307" y="0" height="871"/></clipPath><clipPath id="023c975815"><path d="M 186.3125 192.199219 L 1310 192.199219 L 1310 1313.703125 L 186.3125 1313.703125 Z M 186.3125 192.199219 " clip-rule="nonzero"/></clipPath><clipPath id="97ed7082f0"><path d="M 747.828125 192.199219 C 437.710938 192.199219 186.3125 443.257812 186.3125 752.953125 C 186.3125 1062.644531 437.710938 1313.703125 747.828125 1313.703125 C 1057.949219 1313.703125 1309.347656 1062.644531 1309.347656 752.953125 C 1309.347656 443.257812 1057.949219 192.199219 747.828125 192.199219 Z M 747.828125 192.199219 " clip-rule="nonzero"/></clipPath><clipPath id="09b6b7a8e8"><path d="M 0.3125 0.199219 L 1122 0.199219 L 1122 1121.703125 L 0.3125 1121.703125 Z M 0.3125 0.199219 " clip-rule="nonzero"/></clipPath><clipPath id="cbdd3466d3"><path d="M 561.828125 0.199219 C 251.710938 0.199219 0.3125 251.257812 0.3125 560.953125 C 0.3125 870.644531 251.710938 1121.703125 561.828125 1121.703125 C 871.949219 1121.703125 1123.347656 870.644531 1123.347656 560.953125 C 1123.347656 251.257812 871.949219 0.199219 561.828125 0.199219 Z M 561.828125 0.199219 " clip-rule="nonzero"/></clipPath><clipPath id="e4fd9b30f2"><rect x="0" width="1124" y="0" height="1122"/></clipPath><clipPath id="4707e1a916"><path d="M 186.3125 192.199219 L 1309.058594 192.199219 L 1309.058594 1313.449219 L 186.3125 1313.449219 Z M 186.3125 192.199219 " clip-rule="nonzero"/></clipPath><clipPath id="823538ae24"><path d="M 747.828125 192.199219 C 437.710938 192.199219 186.3125 443.257812 186.3125 752.949219 C 186.3125 1062.640625 437.710938 1313.695312 747.828125 1313.695312 C 1057.941406 1313.695312 1309.34375 1062.640625 1309.34375 752.949219 C 1309.34375 443.257812 1057.941406 192.199219 747.828125 192.199219 Z M 747.828125 192.199219 " clip-rule="nonzero"/></clipPath><clipPath id="8291c4f3bd"><path d="M 4.339844 6.144531 L 1499.839844 6.144531 L 1499.839844 1500 L 4.339844 1500 Z M 4.339844 6.144531 " clip-rule="nonzero"/></clipPath><clipPath id="2571d2ed5f"><path d="M 752.167969 6.144531 C 339.152344 6.144531 4.339844 340.628906 4.339844 753.238281 C 4.339844 1165.847656 339.152344 1500.332031 752.167969 1500.332031 C 1165.179688 1500.332031 1499.992188 1165.847656 1499.992188 753.238281 C 1499.992188 340.628906 1165.179688 6.144531 752.167969 6.144531 Z M 752.167969 6.144531 " clip-rule="nonzero"/></clipPath></defs><rect x="-150" width="1800" fill="#ffffff" y="-149.999993" height="1799.99992" fill-opacity="1"/><rect x="-150" width="1800" fill="#ffffff" y="-149.999993" height="1799.99992" fill-opacity="1"/><g clip-path="url(#ead3b2dfaa)"><g clip-path="url(#fe0999e501)"><g transform="matrix(1, 0, 0, 1, 0, 6)"><g clip-path="url(#0b39ca4142)"><g clip-path="url(#33c6174fe4)"><g clip-path="url(#936a50811b)"><path fill="#000000" d="M 0 0.144531 L 1494.195312 0.144531 L 1494.195312 1494.339844 L 0 1494.339844 Z M 0 0.144531 " fill-opacity="1" fill-rule="nonzero"/></g></g></g></g></g></g><g clip-path="url(#806b6299a3)"><g clip-path="url(#aabf225bd9)"><path stroke-linecap="butt" transform="matrix(0.75, 0, 0, 0.75, 0.0000333501, 6.144864)" fill="none" stroke-linejoin="miter" d="M 997.099064 -0.000444134 C 446.416689 -0.000444134 -0.0000444667 445.978789 -0.0000444667 996.124705 C -0.0000444667 1546.270621 446.416689 1992.249855 997.099064 1992.249855 C 1547.786646 1992.249855 1994.20338 1546.270621 1994.20338 996.124705 C 1994.20338 445.978789 1547.786646 -0.000444134 997.099064 -0.000444134 Z M 997.099064 -0.000444134 " stroke="#000000" stroke-width="20" stroke-opacity="1" stroke-miterlimit="4"/></g></g><g clip-path="url(#9e41605222)"><g clip-path="url(#3ace06c6a8)"><g transform="matrix(1, 0, 0, 1, 757, 14)"><g clip-path="url(#ccb2608a0a)"><g clip-path="url(#ffe9f59ef5)"><g clip-path="url(#762d2e4649)"><path fill="#b61404" d="M 729.523438 0.828125 L 729.523438 737.902344 L 0.988281 737.902344 L 0.988281 0.828125 Z M 729.523438 0.828125 " fill-opacity="1" fill-rule="nonzero"/></g></g></g></g></g></g><g clip-path="url(#9cfb7577cb)"><g clip-path="url(#69e3d41f1e)"><g transform="matrix(1, 0, 0, 1, 747, 743)"><g clip-path="url(#5ef72325fe)"><g clip-path="url(#67dda96e77)"><g clip-path="url(#d968ec9ef6)"><path fill="#b61404" d="M 739.519531 747.796875 L 0.820312 747.796875 L 0.820312 0.441406 L 739.519531 0.441406 Z M 739.519531 747.796875 " fill-opacity="1" fill-rule="nonzero"/></g></g></g></g></g></g><g clip-path="url(#68ad37c2fb)"><g clip-path="url(#02d84f0549)"><g transform="matrix(1, 0, 0, 1, 84, 331)"><g clip-path="url(#8a4bcaea3d)"><g clip-path="url(#b813ab2f9c)"><g clip-path="url(#ba0c0d9567)"><path fill="#ffffff" d="M 1332.472656 730.648438 L 1276.464844 828.488281 L 1.097656 98.402344 L 57.105469 0.558594 Z M 1332.472656 730.648438 " fill-opacity="1" fill-rule="nonzero"/></g></g></g></g></g></g><g clip-path="url(#21378d3deb)"><g clip-path="url(#71dd1506b2)"><g clip-path="url(#d8b5a4641b)"><g transform="matrix(1, 0, 0, 1, 118, 932)"><g clip-path="url(#6144af8438)"><g clip-path="url(#f6a4bdcc29)"><g clip-path="url(#f8ad4b2814)"><g clip-path="url(#ae3f9bdb08)"><path fill="#b61404" d="M 380.148438 829.53125 L 0.171875 196.050781 L 641.078125 -188.375 L 1021.050781 445.105469 Z M 380.148438 829.53125 " fill-opacity="1" fill-rule="nonzero"/></g></g></g></g></g></g></g></g><g clip-path="url(#e984587918)"><g transform="matrix(1, 0, 0, 1, 736, 946)"><g clip-path="url(#a6bc418dba)"><g clip-path="url(#6b892aeb07)"><path fill="#ffffff" d="M 0.621094 0.558594 L 31.722656 0.558594 L 31.722656 544.835938 L 0.621094 544.835938 Z M 0.621094 0.558594 " fill-opacity="1" fill-rule="nonzero"/></g></g></g></g><g clip-path="url(#2963eb2208)"><g transform="matrix(1, 0, 0, 1, 701, 11)"><g clip-path="url(#b671b1a2bd)"><g clip-path="url(#542458f1a3)"><path fill="#ffffff" d="M 0.992188 0.59375 L 112.992188 0.59375 L 112.992188 1474.976562 L 0.992188 1474.976562 Z M 0.992188 0.59375 " fill-opacity="1" fill-rule="nonzero"/></g></g></g></g><g clip-path="url(#1de8f816fa)"><g clip-path="url(#1b11c73837)"><g transform="matrix(1, 0, 0, 1, 83, 297)"><g clip-path="url(#3074b7a5e1)"><g clip-path="url(#1210edb416)"><g clip-path="url(#6c950b50d5)"><path fill="#ffffff" d="M 1247.375 0.261719 L 1306.78125 95.835938 L 59.808594 870.921875 L 0.402344 775.347656 Z M 1247.375 0.261719 " fill-opacity="1" fill-rule="nonzero"/></g></g></g></g></g></g><g clip-path="url(#023c975815)"><g clip-path="url(#97ed7082f0)"><g transform="matrix(1, 0, 0, 1, 186, 192)"><g clip-path="url(#e4fd9b30f2)"><g clip-path="url(#09b6b7a8e8)"><g clip-path="url(#cbdd3466d3)"><path fill="#000000" d="M 0.3125 0.199219 L 1121.8125 0.199219 L 1121.8125 1121.703125 L 0.3125 1121.703125 Z M 0.3125 0.199219 " fill-opacity="1" fill-rule="nonzero"/></g></g></g></g></g></g><g clip-path="url(#4707e1a916)"><g clip-path="url(#823538ae24)"><path stroke-linecap="butt" transform="matrix(0.75, 0, 0, 0.75, 186.310549, 192.200515)" fill="none" stroke-linejoin="miter" d="M 748.68491 -0.00172786 C 335.200526 -0.00172786 0.002602 334.743071 0.002602 747.664955 C 0.002602 1160.586839 335.200526 1495.32643 748.68491 1495.32643 C 1162.174503 1495.32643 1497.372427 1160.586839 1497.372427 747.664955 C 1497.372427 334.743071 1162.174503 -0.00172786 748.68491 -0.00172786 Z M 748.68491 -0.00172786 " stroke="#ffffff" stroke-width="150" stroke-opacity="1" stroke-miterlimit="4"/></g></g><g clip-path="url(#8291c4f3bd)"><g clip-path="url(#2571d2ed5f)"><path stroke-linecap="butt" transform="matrix(0.75, 0, 0, 0.75, 4.340399, 6.144864)" fill="none" stroke-linejoin="miter" d="M 997.103576 -0.000444134 C 446.415993 -0.000444134 -0.000740195 445.978789 -0.000740195 996.124705 C -0.000740195 1546.270621 446.415993 1992.249855 997.103576 1992.249855 C 1547.785951 1992.249855 1994.202684 1546.270621 1994.202684 996.124705 C 1994.202684 445.978789 1547.785951 -0.000444134 997.103576 -0.000444134 Z M 997.103576 -0.000444134 " stroke="#000000" stroke-width="100" stroke-opacity="1" stroke-miterlimit="4"/></g></g></svg>
