<svg xmlns="http://www.w3.org/2000/svg" xmlns:xlink="http://www.w3.org/1999/xlink" width="2000" zoomAndPan="magnify" viewBox="0 0 1500 1499.999933" height="2000" preserveAspectRatio="xMidYMid meet" version="1.0"><defs><g/><clipPath id="4a3cc4bac7"><path d="M 0 6.144531 L 1496 6.144531 L 1496 1500 L 0 1500 Z M 0 6.144531 " clip-rule="nonzero"/></clipPath><clipPath id="1d1b78a869"><path d="M 747.828125 6.144531 C 334.816406 6.144531 0 340.632812 0 753.242188 C 0 1165.855469 334.816406 1500.339844 747.828125 1500.339844 C 1160.84375 1500.339844 1495.660156 1165.855469 1495.660156 753.242188 C 1495.660156 340.632812 1160.84375 6.144531 747.828125 6.144531 Z M 747.828125 6.144531 " clip-rule="nonzero"/></clipPath><clipPath id="9b2ef6a440"><path d="M 0 0.144531 L 1495 0.144531 L 1495 1494 L 0 1494 Z M 0 0.144531 " clip-rule="nonzero"/></clipPath><clipPath id="4ba633ff27"><path d="M 747.828125 0.144531 C 334.816406 0.144531 0 334.632812 0 747.242188 C 0 1159.855469 334.816406 1494.339844 747.828125 1494.339844 C 1160.84375 1494.339844 1495.660156 1159.855469 1495.660156 747.242188 C 1495.660156 334.632812 1160.84375 0.144531 747.828125 0.144531 Z M 747.828125 0.144531 " clip-rule="nonzero"/></clipPath><clipPath id="1c9f3bdc12"><rect x="0" width="1496" y="0" height="1494"/></clipPath><clipPath id="f3559630a9"><path d="M 0 6.144531 L 1495.9375 6.144531 L 1495.9375 1500 L 0 1500 Z M 0 6.144531 " clip-rule="nonzero"/></clipPath><clipPath id="4d0e67df84"><path d="M 747.824219 6.144531 C 334.8125 6.144531 0 340.628906 0 753.238281 C 0 1165.84375 334.8125 1500.332031 747.824219 1500.332031 C 1160.835938 1500.332031 1495.648438 1165.84375 1495.648438 753.238281 C 1495.648438 340.628906 1160.835938 6.144531 747.824219 6.144531 Z M 747.824219 6.144531 " clip-rule="nonzero"/></clipPath><clipPath id="5f88021765"><path d="M 757.988281 14.828125 L 1486.523438 14.828125 L 1486.523438 754 L 757.988281 754 Z M 757.988281 14.828125 " clip-rule="nonzero"/></clipPath><clipPath id="574254bc75"><path d="M 757.988281 14.828125 C 949.855469 14.828125 1137.46875 93.59375 1273.140625 231.105469 C 1408.8125 368.617188 1486.523438 558.777344 1486.523438 753.246094 L 1114.847656 753.246094 C 1114.847656 657.988281 1076.785156 564.84375 1010.328125 497.484375 C 943.871094 430.128906 851.972656 391.542969 757.988281 391.542969 Z M 757.988281 14.828125 " clip-rule="nonzero"/></clipPath><clipPath id="57abc48ef0"><path d="M 0.988281 0.828125 L 729.523438 0.828125 L 729.523438 738 L 0.988281 738 Z M 0.988281 0.828125 " clip-rule="nonzero"/></clipPath><clipPath id="d16d70c57d"><path d="M 0.988281 0.828125 C 192.855469 0.828125 380.46875 79.59375 516.140625 217.105469 C 651.8125 354.617188 729.523438 544.777344 729.523438 739.246094 L 357.847656 739.246094 C 357.847656 643.988281 319.785156 550.84375 253.328125 483.484375 C 186.871094 416.128906 94.972656 377.542969 0.988281 377.542969 Z M 0.988281 0.828125 " clip-rule="nonzero"/></clipPath><clipPath id="96373fd28b"><rect x="0" width="730" y="0" height="740"/></clipPath><clipPath id="b896eb19f0"><path d="M 747.820312 743.445312 L 1486.523438 743.445312 L 1486.523438 1490.804688 L 747.820312 1490.804688 Z M 747.820312 743.445312 " clip-rule="nonzero"/></clipPath><clipPath id="730c915d03"><path d="M 1486.523438 743.828125 C 1486.523438 940.554688 1407.726562 1132.914062 1270.160156 1272.019531 C 1132.597656 1411.125 942.367188 1490.804688 747.820312 1490.804688 L 747.820312 1109.722656 C 843.117188 1109.722656 936.296875 1070.695312 1003.683594 1002.554688 C 1071.066406 934.417969 1109.664062 840.191406 1109.664062 743.828125 Z M 1486.523438 743.828125 " clip-rule="nonzero"/></clipPath><clipPath id="7ab03d0650"><path d="M 0.820312 0.761719 L 739.523438 0.761719 L 739.523438 747.804688 L 0.820312 747.804688 Z M 0.820312 0.761719 " clip-rule="nonzero"/></clipPath><clipPath id="322bf58bd1"><path d="M 739.523438 0.828125 C 739.523438 197.554688 660.726562 389.914062 523.160156 529.019531 C 385.597656 668.125 195.367188 747.804688 0.820312 747.804688 L 0.820312 366.722656 C 96.117188 366.722656 189.296875 327.695312 256.683594 259.554688 C 324.066406 191.417969 362.664062 97.191406 362.664062 0.828125 Z M 739.523438 0.828125 " clip-rule="nonzero"/></clipPath><clipPath id="aedf4ce144"><rect x="0" width="740" y="0" height="748"/></clipPath><clipPath id="d69ec6be19"><path d="M 908 837 L 1396 837 L 1396 1136 L 908 1136 Z M 908 837 " clip-rule="nonzero"/></clipPath><clipPath id="f850c4cab7"><path d="M 1395.796875 1108.253906 L 1380.347656 1135.246094 L 908.015625 864.859375 L 923.464844 837.867188 Z M 1395.796875 1108.253906 " clip-rule="nonzero"/></clipPath><clipPath id="cb5012c318"><path d="M 0 0.839844 L 487.839844 0.839844 L 487.839844 298.441406 L 0 298.441406 Z M 0 0.839844 " clip-rule="nonzero"/></clipPath><clipPath id="04565481fd"><path d="M 487.796875 271.253906 L 472.347656 298.246094 L 0.015625 27.859375 L 15.464844 0.867188 Z M 487.796875 271.253906 " clip-rule="nonzero"/></clipPath><clipPath id="3b503108c6"><rect x="0" width="488" y="0" height="299"/></clipPath><clipPath id="30654c97cc"><path d="M 736.621094 14.824219 L 767.722656 14.824219 L 767.722656 559.074219 L 736.621094 559.074219 Z M 736.621094 14.824219 " clip-rule="nonzero"/></clipPath><clipPath id="f084a5dc7c"><path d="M 0.621094 0.824219 L 31.722656 0.824219 L 31.722656 545.074219 L 0.621094 545.074219 Z M 0.621094 0.824219 " clip-rule="nonzero"/></clipPath><clipPath id="cf58f90a80"><rect x="0" width="32" y="0" height="546"/></clipPath><clipPath id="adeb5c2b13"><path d="M 118 932 L 1139 932 L 1139 1485 L 118 1485 Z M 118 932 " clip-rule="nonzero"/></clipPath><clipPath id="8fe8a99d65"><path d="M 498.144531 1761.539062 L 118.171875 1128.058594 L 759.074219 743.628906 L 1139.050781 1377.109375 Z M 498.144531 1761.539062 " clip-rule="nonzero"/></clipPath><clipPath id="72e32a1fcd"><path d="M 1138.722656 1377.308594 C 970.019531 1478.5 764.527344 1509.875 574.472656 1463.457031 C 384.421875 1417.039062 218.242188 1294.890625 118.171875 1128.058594 L 444.972656 932.035156 C 493.988281 1013.757812 575.390625 1073.589844 668.484375 1096.328125 C 761.578125 1119.0625 862.234375 1103.695312 944.871094 1054.128906 Z M 1138.722656 1377.308594 " clip-rule="nonzero"/></clipPath><clipPath id="bc4c6293cb"><path d="M 0.078125 0 L 1020.800781 0 L 1020.800781 553 L 0.078125 553 Z M 0.078125 0 " clip-rule="nonzero"/></clipPath><clipPath id="438e91c6cc"><path d="M 380.144531 829.539062 L 0.171875 196.058594 L 641.074219 -188.371094 L 1021.050781 445.109375 Z M 380.144531 829.539062 " clip-rule="nonzero"/></clipPath><clipPath id="4e386cf0f8"><path d="M 1020.722656 445.308594 C 852.019531 546.5 646.527344 577.875 456.472656 531.457031 C 266.421875 485.039062 100.242188 362.890625 0.171875 196.058594 L 326.972656 0.0351562 C 375.988281 81.757812 457.390625 141.589844 550.484375 164.328125 C 643.578125 187.0625 744.234375 171.695312 826.871094 122.128906 Z M 1020.722656 445.308594 " clip-rule="nonzero"/></clipPath><clipPath id="2d088508ed"><rect x="0" width="1021" y="0" height="553"/></clipPath><clipPath id="aea97c83fc"><path d="M 736.621094 946.558594 L 767.722656 946.558594 L 767.722656 1490.804688 L 736.621094 1490.804688 Z M 736.621094 946.558594 " clip-rule="nonzero"/></clipPath><clipPath id="4bab287041"><path d="M 0.621094 0.558594 L 31.722656 0.558594 L 31.722656 544.804688 L 0.621094 544.804688 Z M 0.621094 0.558594 " clip-rule="nonzero"/></clipPath><clipPath id="d6aed525ec"><rect x="0" width="32" y="0" height="545"/></clipPath><clipPath id="f5da0791ac"><path d="M 106 823 L 586 823 L 586 1137 L 106 1137 Z M 106 823 " clip-rule="nonzero"/></clipPath><clipPath id="b53f4759f9"><path d="M 568.628906 823.199219 L 585.046875 849.613281 L 122.8125 1136.925781 L 106.394531 1110.511719 Z M 568.628906 823.199219 " clip-rule="nonzero"/></clipPath><clipPath id="2e132039de"><path d="M 0.320312 0.199219 L 479.121094 0.199219 L 479.121094 314 L 0.320312 314 Z M 0.320312 0.199219 " clip-rule="nonzero"/></clipPath><clipPath id="8e653b203a"><path d="M 462.628906 0.199219 L 479.046875 26.613281 L 16.8125 313.925781 L 0.394531 287.511719 Z M 462.628906 0.199219 " clip-rule="nonzero"/></clipPath><clipPath id="464b6514d4"><rect x="0" width="480" y="0" height="314"/></clipPath><clipPath id="54c0ea28ce"><path d="M 918 373 L 1397 373 L 1397 688 L 918 688 Z M 918 373 " clip-rule="nonzero"/></clipPath><clipPath id="970620a457"><path d="M 1380.375 373.347656 L 1396.792969 399.761719 L 934.5625 687.074219 L 918.144531 660.660156 Z M 1380.375 373.347656 " clip-rule="nonzero"/></clipPath><clipPath id="920ef228c4"><path d="M 0 0.199219 L 478.800781 0.199219 L 478.800781 314.121094 L 0 314.121094 Z M 0 0.199219 " clip-rule="nonzero"/></clipPath><clipPath id="9f0bc45ee9"><path d="M 462.375 0.347656 L 478.792969 26.761719 L 16.5625 314.074219 L 0.144531 287.660156 Z M 462.375 0.347656 " clip-rule="nonzero"/></clipPath><clipPath id="bd8b0a3a2c"><rect x="0" width="479" y="0" height="315"/></clipPath><clipPath id="a16eb1c93d"><path d="M 106 373 L 595 373 L 595 671 L 106 671 Z M 106 373 " clip-rule="nonzero"/></clipPath><clipPath id="a157e122d6"><path d="M 594.175781 643.734375 L 578.726562 670.726562 L 106.394531 400.339844 L 121.84375 373.347656 Z M 594.175781 643.734375 " clip-rule="nonzero"/></clipPath><clipPath id="5245bc7d3b"><path d="M 0.320312 0.199219 L 488.238281 0.199219 L 488.238281 297.800781 L 0.320312 297.800781 Z M 0.320312 0.199219 " clip-rule="nonzero"/></clipPath><clipPath id="a45865d71b"><path d="M 488.175781 270.734375 L 472.726562 297.726562 L 0.394531 27.339844 L 15.84375 0.347656 Z M 488.175781 270.734375 " clip-rule="nonzero"/></clipPath><clipPath id="f352dc3465"><rect x="0" width="489" y="0" height="298"/></clipPath><clipPath id="2df319af66"><path d="M 186.3125 192.199219 L 1310 192.199219 L 1310 1313.703125 L 186.3125 1313.703125 Z M 186.3125 192.199219 " clip-rule="nonzero"/></clipPath><clipPath id="2cc18e3009"><path d="M 747.828125 192.199219 C 437.710938 192.199219 186.3125 443.257812 186.3125 752.953125 C 186.3125 1062.644531 437.710938 1313.703125 747.828125 1313.703125 C 1057.949219 1313.703125 1309.347656 1062.644531 1309.347656 752.953125 C 1309.347656 443.257812 1057.949219 192.199219 747.828125 192.199219 Z M 747.828125 192.199219 " clip-rule="nonzero"/></clipPath><clipPath id="8a05395f5c"><path d="M 0.3125 0.199219 L 1122 0.199219 L 1122 1121.703125 L 0.3125 1121.703125 Z M 0.3125 0.199219 " clip-rule="nonzero"/></clipPath><clipPath id="ebd4dc64ba"><path d="M 561.828125 0.199219 C 251.710938 0.199219 0.3125 251.257812 0.3125 560.953125 C 0.3125 870.644531 251.710938 1121.703125 561.828125 1121.703125 C 871.949219 1121.703125 1123.347656 870.644531 1123.347656 560.953125 C 1123.347656 251.257812 871.949219 0.199219 561.828125 0.199219 Z M 561.828125 0.199219 " clip-rule="nonzero"/></clipPath><clipPath id="8f95b14b2e"><rect x="0" width="1124" y="0" height="1122"/></clipPath><clipPath id="c18bda0710"><path d="M 186.3125 192.199219 L 1308.945312 192.199219 L 1308.945312 1313.925781 L 186.3125 1313.925781 Z M 186.3125 192.199219 " clip-rule="nonzero"/></clipPath><clipPath id="b922e74a8b"><path d="M 747.828125 192.199219 C 437.710938 192.199219 186.3125 443.257812 186.3125 752.949219 C 186.3125 1062.640625 437.710938 1313.695312 747.828125 1313.695312 C 1057.945312 1313.695312 1309.34375 1062.640625 1309.34375 752.949219 C 1309.34375 443.257812 1057.945312 192.199219 747.828125 192.199219 Z M 747.828125 192.199219 " clip-rule="nonzero"/></clipPath><clipPath id="af73785ec0"><path d="M 4.339844 6.144531 L 1500 6.144531 L 1500 1500 L 4.339844 1500 Z M 4.339844 6.144531 " clip-rule="nonzero"/></clipPath><clipPath id="e490a51d23"><path d="M 752.164062 6.144531 C 339.152344 6.144531 4.339844 340.628906 4.339844 753.238281 C 4.339844 1165.84375 339.152344 1500.332031 752.164062 1500.332031 C 1165.179688 1500.332031 1499.992188 1165.84375 1499.992188 753.238281 C 1499.992188 340.628906 1165.179688 6.144531 752.164062 6.144531 Z M 752.164062 6.144531 " clip-rule="nonzero"/></clipPath><clipPath id="b28fea73e1"><rect x="0" width="1500" y="0" height="1500"/></clipPath></defs><g transform="matrix(1, 0, 0, 1, 0, 0.000000000000112861)"><g clip-path="url(#b28fea73e1)"><g clip-path="url(#4a3cc4bac7)"><g clip-path="url(#1d1b78a869)"><g transform="matrix(1, 0, 0, 1, 0, 6)"><g clip-path="url(#1c9f3bdc12)"><g clip-path="url(#9b2ef6a440)"><g clip-path="url(#4ba633ff27)"><path fill="#000000" d="M 0 0.144531 L 1494.195312 0.144531 L 1494.195312 1494.339844 L 0 1494.339844 Z M 0 0.144531 " fill-opacity="1" fill-rule="nonzero"/></g></g></g></g></g></g><g clip-path="url(#f3559630a9)"><g clip-path="url(#4d0e67df84)"><path stroke-linecap="butt" transform="matrix(0.91049, 0, 0, 0.91049, 0.00003335, 6.144864)" fill="none" stroke-linejoin="miter" d="M 821.342268 -0.000365848 C 367.72765 -0.000365848 -0.0000366286 367.366938 -0.0000366286 820.539658 C -0.0000366286 1273.712377 367.72765 1641.079681 821.342268 1641.079681 C 1274.956885 1641.079681 1642.684572 1273.712377 1642.684572 820.539658 C 1642.684572 367.366938 1274.956885 -0.000365848 821.342268 -0.000365848 Z M 821.342268 -0.000365848 " stroke="#000000" stroke-width="16.474638" stroke-opacity="1" stroke-miterlimit="4"/></g></g><g clip-path="url(#5f88021765)"><g clip-path="url(#574254bc75)"><g transform="matrix(1, 0, 0, 1, 757, 14)"><g clip-path="url(#96373fd28b)"><g clip-path="url(#57abc48ef0)"><g clip-path="url(#d16d70c57d)"><path fill="#b61404" d="M 729.523438 0.828125 L 729.523438 737.902344 L 0.988281 737.902344 L 0.988281 0.828125 Z M 729.523438 0.828125 " fill-opacity="1" fill-rule="nonzero"/></g></g></g></g></g></g><g clip-path="url(#b896eb19f0)"><g clip-path="url(#730c915d03)"><g transform="matrix(1, 0, 0, 1, 747, 743)"><g clip-path="url(#aedf4ce144)"><g clip-path="url(#7ab03d0650)"><g clip-path="url(#322bf58bd1)"><path fill="#b61404" d="M 739.523438 747.804688 L 0.820312 747.804688 L 0.820312 0.445312 L 739.523438 0.445312 Z M 739.523438 747.804688 " fill-opacity="1" fill-rule="nonzero"/></g></g></g></g></g></g><g clip-path="url(#d69ec6be19)"><g clip-path="url(#f850c4cab7)"><g transform="matrix(1, 0, 0, 1, 908, 837)"><g clip-path="url(#3b503108c6)"><g clip-path="url(#cb5012c318)"><g clip-path="url(#04565481fd)"><path fill="#ffffff" d="M 487.796875 271.253906 L 472.347656 298.246094 L -0.0078125 27.84375 L 15.441406 0.851562 Z M 487.796875 271.253906 " fill-opacity="1" fill-rule="nonzero"/></g></g></g></g></g></g><g clip-path="url(#30654c97cc)"><g transform="matrix(1, 0, 0, 1, 736, 14)"><g clip-path="url(#cf58f90a80)"><g clip-path="url(#f084a5dc7c)"><path fill="#ffffff" d="M 0.621094 0.824219 L 31.722656 0.824219 L 31.722656 545.101562 L 0.621094 545.101562 Z M 0.621094 0.824219 " fill-opacity="1" fill-rule="nonzero"/></g></g></g></g><g clip-path="url(#adeb5c2b13)"><g clip-path="url(#8fe8a99d65)"><g clip-path="url(#72e32a1fcd)"><g transform="matrix(1, 0, 0, 1, 118, 932)"><g clip-path="url(#2d088508ed)"><g clip-path="url(#bc4c6293cb)"><g clip-path="url(#438e91c6cc)"><g clip-path="url(#4e386cf0f8)"><path fill="#b61404" d="M 380.144531 829.539062 L 0.171875 196.058594 L 641.074219 -188.371094 L 1021.050781 445.109375 Z M 380.144531 829.539062 " fill-opacity="1" fill-rule="nonzero"/></g></g></g></g></g></g></g></g><g clip-path="url(#aea97c83fc)"><g transform="matrix(1, 0, 0, 1, 736, 946)"><g clip-path="url(#d6aed525ec)"><g clip-path="url(#4bab287041)"><path fill="#ffffff" d="M 0.621094 0.558594 L 31.722656 0.558594 L 31.722656 544.835938 L 0.621094 544.835938 Z M 0.621094 0.558594 " fill-opacity="1" fill-rule="nonzero"/></g></g></g></g><g clip-path="url(#f5da0791ac)"><g clip-path="url(#b53f4759f9)"><g transform="matrix(1, 0, 0, 1, 106, 823)"><g clip-path="url(#464b6514d4)"><g clip-path="url(#2e132039de)"><g clip-path="url(#8e653b203a)"><path fill="#ffffff" d="M 462.628906 0.199219 L 479.046875 26.613281 L 16.789062 313.941406 L 0.371094 287.527344 Z M 462.628906 0.199219 " fill-opacity="1" fill-rule="nonzero"/></g></g></g></g></g></g><g clip-path="url(#54c0ea28ce)"><g clip-path="url(#970620a457)"><g transform="matrix(1, 0, 0, 1, 918, 373)"><g clip-path="url(#bd8b0a3a2c)"><g clip-path="url(#920ef228c4)"><g clip-path="url(#9f0bc45ee9)"><path fill="#ffffff" d="M 462.375 0.347656 L 478.792969 26.761719 L 16.539062 314.089844 L 0.121094 287.675781 Z M 462.375 0.347656 " fill-opacity="1" fill-rule="nonzero"/></g></g></g></g></g></g><g clip-path="url(#a16eb1c93d)"><g clip-path="url(#a157e122d6)"><g transform="matrix(1, 0, 0, 1, 106, 373)"><g clip-path="url(#f352dc3465)"><g clip-path="url(#5245bc7d3b)"><g clip-path="url(#a45865d71b)"><path fill="#ffffff" d="M 488.175781 270.734375 L 472.726562 297.726562 L 0.371094 27.324219 L 15.820312 0.332031 Z M 488.175781 270.734375 " fill-opacity="1" fill-rule="nonzero"/></g></g></g></g></g></g><g clip-path="url(#2df319af66)"><g clip-path="url(#2cc18e3009)"><g transform="matrix(1, 0, 0, 1, 186, 192)"><g clip-path="url(#8f95b14b2e)"><g clip-path="url(#8a05395f5c)"><g clip-path="url(#ebd4dc64ba)"><path fill="#000000" d="M 0.3125 0.199219 L 1121.8125 0.199219 L 1121.8125 1121.703125 L 0.3125 1121.703125 Z M 0.3125 0.199219 " fill-opacity="1" fill-rule="nonzero"/></g></g></g></g></g></g><g clip-path="url(#c18bda0710)"><g clip-path="url(#b922e74a8b)"><path stroke-linecap="butt" transform="matrix(0.91049, 0, 0, 0.91049, 186.310565, 192.200515)" fill="none" stroke-linejoin="miter" d="M 616.719965 -0.00142329 C 276.11537 -0.00142329 0.0021249 275.738568 0.0021249 615.875524 C 0.0021249 956.01248 276.11537 1231.748181 616.719965 1231.748181 C 957.324561 1231.748181 1233.437806 956.01248 1233.437806 615.875524 C 1233.437806 275.738568 957.324561 -0.00142329 616.719965 -0.00142329 Z M 616.719965 -0.00142329 " stroke="#ffffff" stroke-width="32.949276" stroke-opacity="1" stroke-miterlimit="4"/></g></g><g fill="#ffffff" fill-opacity="1"><g transform="translate(389.320663, 742.030894)"><g><path d="M 70.15625 -9.359375 L 37.390625 -9.359375 L 46.75 -18.71875 L 46.75 -56.109375 L 37.390625 -65.484375 L 70.15625 -65.484375 L 74.84375 -60.796875 L 74.84375 -14.046875 Z M 70.15625 -74.84375 L 46.75 -74.84375 L 46.75 -102.875 L 37.390625 -112.234375 L 70.15625 -112.234375 L 74.84375 -107.546875 L 74.84375 -79.515625 Z M 0 0 L 98.1875 0 L 112.234375 -14.046875 L 112.234375 -60.796875 L 98.1875 -74.84375 L 112.234375 -88.890625 L 112.234375 -107.546875 L 98.1875 -121.59375 L 0 -121.59375 L 9.359375 -112.234375 L 9.359375 -9.359375 Z M 0 0 "/></g></g></g><g fill="#ffffff" fill-opacity="1"><g transform="translate(517.890216, 742.030894)"><g><path d="M 0 0 L 84.203125 0 L 84.203125 -18.71875 L 74.84375 -9.359375 L 37.390625 -9.359375 L 46.75 -18.71875 L 46.75 -112.234375 L 51.4375 -121.59375 L 0 -121.59375 L 9.359375 -112.234375 L 9.359375 -9.359375 Z M 0 0 "/></g></g></g><g fill="#ffffff" fill-opacity="1"><g transform="translate(618.375068, 742.030894)"><g><path d="M 74.84375 -65.484375 L 46.75 -65.484375 L 46.75 -102.875 L 56.109375 -112.234375 L 65.484375 -112.234375 L 74.84375 -102.875 Z M 0 0 L 51.4375 0 L 46.75 -9.359375 L 46.75 -46.75 L 37.390625 -56.109375 L 84.203125 -56.109375 L 74.84375 -46.75 L 74.84375 -9.359375 L 70.15625 0 L 121.59375 0 L 112.234375 -9.359375 L 112.234375 -93.5 L 84.203125 -121.59375 L 37.390625 -121.59375 L 9.359375 -93.5 L 9.359375 -9.359375 Z M 0 0 "/></g></g></g><g fill="#ffffff" fill-opacity="1"><g transform="translate(756.306169, 742.030894)"><g><path d="M 70.15625 -9.359375 L 37.390625 -9.359375 L 46.75 -18.71875 L 46.75 -102.875 L 37.390625 -112.234375 L 70.15625 -112.234375 L 74.84375 -107.546875 L 74.84375 -14.046875 Z M 0 0 L 98.1875 0 L 112.234375 -14.046875 L 112.234375 -107.546875 L 98.1875 -121.59375 L 0 -121.59375 L 9.359375 -112.234375 L 9.359375 -9.359375 Z M 0 0 "/></g></g></g><g fill="#ffffff" fill-opacity="1"><g transform="translate(884.875749, 742.030894)"><g><path d="M 0 0 L 93.5 0 L 93.5 -28.09375 L 74.84375 -9.359375 L 37.390625 -9.359375 L 46.75 -14.046875 L 46.75 -56.109375 L 37.390625 -65.484375 L 65.484375 -65.484375 L 74.84375 -56.109375 L 74.84375 -84.203125 L 65.484375 -74.84375 L 46.75 -74.84375 L 46.75 -102.875 L 37.390625 -112.234375 L 74.84375 -112.234375 L 93.5 -93.5 L 93.5 -121.59375 L 0 -121.59375 L 9.359375 -112.234375 L 9.359375 -9.359375 Z M 0 0 "/></g></g></g><g fill="#ffffff" fill-opacity="1"><g transform="translate(994.72215, 742.030894)"><g><path d="M 0 0 L 9.359375 -9.359375 L 18.71875 0 L 70.15625 0 L 88.890625 -18.71875 L 88.890625 -46.75 L 28.09375 -107.546875 L 28.09375 -112.234375 L 51.4375 -112.234375 L 84.203125 -79.515625 L 84.203125 -121.59375 L 74.84375 -112.234375 L 65.484375 -121.59375 L 23.40625 -121.59375 L 4.6875 -102.875 L 4.6875 -74.84375 L 65.484375 -14.046875 L 65.484375 -9.359375 L 42.078125 -9.359375 L 0 -51.4375 Z M 0 0 "/></g></g></g><g fill="#ffffff" fill-opacity="1"><g transform="translate(1104.581947, 742.030894)"><g/></g></g><g fill="#ffffff" fill-opacity="1"><g transform="translate(399.563679, 911.382093)"><g><path d="M 14.046875 0 L 74.84375 0 L 84.203125 -9.359375 L 93.5 0 L 93.5 -37.390625 L 65.484375 -9.359375 L 28.09375 -9.359375 L 37.390625 -18.71875 L 37.390625 -102.875 L 28.09375 -112.234375 L 65.484375 -112.234375 L 93.5 -84.203125 L 93.5 -121.59375 L 84.203125 -112.234375 L 74.84375 -121.59375 L 14.046875 -121.59375 L 0 -107.546875 L 0 -14.046875 Z M 14.046875 0 "/></g></g></g><g fill="#ffffff" fill-opacity="1"><g transform="translate(509.410094, 911.382093)"><g><path d="M 0 0 L 84.203125 0 L 84.203125 -18.71875 L 74.84375 -9.359375 L 37.390625 -9.359375 L 46.75 -18.71875 L 46.75 -112.234375 L 51.4375 -121.59375 L 0 -121.59375 L 9.359375 -112.234375 L 9.359375 -9.359375 Z M 0 0 "/></g></g></g><g fill="#ffffff" fill-opacity="1"><g transform="translate(609.894946, 911.382093)"><g><path d="M 74.84375 -9.359375 L 42.078125 -9.359375 L 37.390625 -14.046875 L 37.390625 -102.875 L 28.09375 -112.234375 L 60.796875 -112.234375 L 65.484375 -107.546875 L 65.484375 -18.71875 Z M 14.046875 0 L 88.890625 0 L 102.875 -14.046875 L 102.875 -107.546875 L 88.890625 -121.59375 L 14.046875 -121.59375 L 0 -107.546875 L 0 -14.046875 Z M 14.046875 0 "/></g></g></g><g fill="#ffffff" fill-opacity="1"><g transform="translate(729.102936, 911.382093)"><g><path d="M 14.046875 0 L 74.84375 0 L 84.203125 -9.359375 L 93.5 0 L 93.5 -37.390625 L 65.484375 -9.359375 L 28.09375 -9.359375 L 37.390625 -18.71875 L 37.390625 -102.875 L 28.09375 -112.234375 L 65.484375 -112.234375 L 93.5 -84.203125 L 93.5 -121.59375 L 84.203125 -112.234375 L 74.84375 -121.59375 L 14.046875 -121.59375 L 0 -107.546875 L 0 -14.046875 Z M 14.046875 0 "/></g></g></g><g fill="#ffffff" fill-opacity="1"><g transform="translate(838.949337, 911.382093)"><g><path d="M 0 0 L 51.4375 0 L 46.75 -9.359375 L 46.75 -46.75 L 37.390625 -56.109375 L 56.109375 -56.109375 L 84.203125 0 L 126.28125 0 L 116.90625 -9.359375 L 79.515625 -84.203125 L 93.5 -112.234375 L 102.875 -121.59375 L 84.203125 -121.59375 L 56.109375 -65.484375 L 46.75 -65.484375 L 46.75 -112.234375 L 51.4375 -121.59375 L 0 -121.59375 L 9.359375 -112.234375 L 9.359375 -9.359375 Z M 0 0 "/></g></g></g><g fill="#ffffff" fill-opacity="1"><g transform="translate(986.241986, 911.382093)"><g><path d="M 0 0 L 9.359375 -9.359375 L 18.71875 0 L 70.15625 0 L 88.890625 -18.71875 L 88.890625 -46.75 L 28.09375 -107.546875 L 28.09375 -112.234375 L 51.4375 -112.234375 L 84.203125 -79.515625 L 84.203125 -121.59375 L 74.84375 -112.234375 L 65.484375 -121.59375 L 23.40625 -121.59375 L 4.6875 -102.875 L 4.6875 -74.84375 L 65.484375 -14.046875 L 65.484375 -9.359375 L 42.078125 -9.359375 L 0 -51.4375 Z M 0 0 "/></g></g></g><g clip-path="url(#af73785ec0)"><g clip-path="url(#e490a51d23)"><path stroke-linecap="butt" transform="matrix(0.91049, 0, 0, 0.91049, 4.340399, 6.144864)" fill="none" stroke-linejoin="miter" d="M 821.341694 -0.000365848 C 367.727077 -0.000365848 -0.000610249 367.366938 -0.000610249 820.539658 C -0.000610249 1273.712377 367.727077 1641.079681 821.341694 1641.079681 C 1274.960602 1641.079681 1642.688289 1273.712377 1642.688289 820.539658 C 1642.688289 367.366938 1274.960602 -0.000365848 821.341694 -0.000365848 Z M 821.341694 -0.000365848 " stroke="#000000" stroke-width="49.423916" stroke-opacity="1" stroke-miterlimit="4"/></g></g></g></g></svg>
